<svg xmlns="http://www.w3.org/2000/svg" width="225" height="76" viewBox="0 0 225 76" fill="none"><path d="M79.4329 49.909L91.401 61.4941C92.0074 62.2601 92.8563 64.3281 91.401 66.4728L89.2946 69.0579C88.5925 69.5366 86.6329 70.2068 84.4116 69.0579L72.1563 56.6111C68.1989 58.8452 58.0819 61.8579 49.2734 56.0367C40.6414 50.332 45.8933 53.4787 49.8014 55.8898C45.0531 52.8827 37.3803 43.5538 42.9543 28.941C44.5181 25.5261 49.6181 18.4091 57.5074 17.2602C61.6244 16.3665 71.218 16.3792 76.6563 23.5792L73.6882 26.6431C71.0712 24.0899 63.8457 19.7495 55.8798 22.8133C53.0713 24.026 47.3011 27.8111 46.6883 33.2494L48.5404 35.2707L56.1369 27.4596L66.008 37.3736L84.6344 18.1035H77.8963V13.3396H93.0463V28.941H88.0249V22.0519L66.008 44.0259L55.6648 34.4123L48.1542 42.1375L45.2357 39.2191C45.1928 43.8256 48.5919 53.4507 62.5317 55.0987C67.6532 54.5204 77.8963 50.5348 77.8963 39.2191C77.8926 38.2283 77.8444 35.8798 77.6817 34.4123L81.8447 30.5068C82.6117 35.5304 83.203 46.444 79.4329 49.909Z" fill="#1EBBFF"></path><path d="M11.9536 59.1261C8.20655 59.1261 5.50122 58.1932 3.83761 56.3275C2.18954 54.4617 1.3655 51.4921 1.3655 47.4186V43.4072H9.48147V48.538C9.48147 49.4864 9.6214 50.2327 9.90126 50.7769C10.1967 51.3055 10.702 51.5698 11.4172 51.5698C12.1635 51.5698 12.6766 51.3522 12.9564 50.9168C13.2518 50.4815 13.3995 49.7663 13.3995 48.7712C13.3995 47.5118 13.2751 46.4624 13.0264 45.6228C12.7776 44.7677 12.3423 43.9592 11.7204 43.1973C11.114 42.4199 10.2666 41.5182 9.17829 40.492L5.49345 36.9937C2.74148 34.3972 1.3655 31.4276 1.3655 28.0848C1.3655 24.5866 2.17399 21.9201 3.79096 20.0855C5.42349 18.2508 7.77898 17.3335 10.8575 17.3335C14.62 17.3335 17.2865 18.3363 18.8568 20.342C20.4427 22.3477 21.2356 25.395 21.2356 29.4841H12.8864V26.6622C12.8864 26.1025 12.7232 25.6671 12.3967 25.3562C12.0857 25.0452 11.6582 24.8897 11.114 24.8897C10.461 24.8897 9.979 25.0763 9.66804 25.4495C9.37264 25.8071 9.22493 26.2735 9.22493 26.8488C9.22493 27.424 9.38041 28.046 9.69137 28.7145C10.0023 29.3831 10.6165 30.1527 11.5338 31.0234L16.2681 35.5711C17.2165 36.4729 18.0872 37.4291 18.8801 38.4397C19.6731 39.4347 20.3105 40.6008 20.7925 41.9379C21.2745 43.2595 21.5155 44.8765 21.5155 46.7889C21.5155 50.6447 20.8003 53.6688 19.3699 55.861C17.955 58.0377 15.4829 59.1261 11.9536 59.1261ZM25.2227 58.7529V17.7066H41.6412V25.636H33.5719V33.6354H41.3147V41.3549H33.5719V50.7536H42.1776V58.7529H25.2227Z" fill="#1EBBFF"></path><path d="M106.332 58.8872C102.444 58.8872 99.6361 57.9192 97.9098 55.983C96.1995 54.0469 95.3444 50.9652 95.3444 46.7379V42.5752H103.767V47.8996C103.767 48.8838 103.912 49.6583 104.202 50.223C104.509 50.7716 105.033 51.0458 105.775 51.0458C106.55 51.0458 107.082 50.82 107.373 50.3682C107.679 49.9164 107.832 49.1742 107.832 48.1416C107.832 46.8347 107.703 45.7456 107.445 44.8744C107.187 43.987 106.735 43.148 106.09 42.3574C105.461 41.5507 104.581 40.6149 103.452 39.55L99.6281 35.9197C96.7723 33.2252 95.3444 30.1435 95.3444 26.6746C95.3444 23.0443 96.1834 20.2773 97.8613 18.3734C99.5555 16.4695 102 15.5176 105.194 15.5176C109.099 15.5176 111.866 16.5582 113.496 18.6396C115.141 20.721 115.964 23.8833 115.964 28.1267H107.3V25.1983C107.3 24.6175 107.131 24.1657 106.792 23.843C106.469 23.5203 106.025 23.359 105.461 23.359C104.783 23.359 104.283 23.5526 103.96 23.9398C103.654 24.3109 103.5 24.7949 103.5 25.3919C103.5 25.9889 103.662 26.6343 103.984 27.3281C104.307 28.0218 104.944 28.8205 105.896 29.724L110.809 34.4434C111.794 35.3792 112.697 36.3715 113.52 37.4202C114.343 38.4528 115.004 39.6629 115.504 41.0505C116.005 42.4219 116.255 44.0999 116.255 46.0845C116.255 50.0858 115.513 53.224 114.028 55.499C112.56 57.7578 109.995 58.8872 106.332 58.8872ZM119.606 58.5V15.9048H132.578L136.16 41.8733L139.718 15.9048H152.811V58.5H145.018V27.8121L140.129 58.5H132.482L127.302 27.8121V58.5H119.606ZM155.921 58.5L160.035 15.9048H174.483L178.525 58.5H170.466L169.861 51.6267H164.73L164.198 58.5H155.921ZM165.335 44.826H169.207L167.344 23.1653H166.957L165.335 44.826ZM181.634 58.5V15.9048H194.703C196.882 15.9048 198.527 16.405 199.641 17.4053C200.754 18.3895 201.496 19.7771 201.867 21.568C202.254 23.3428 202.448 25.4322 202.448 27.8363C202.448 30.1597 202.15 32.0151 201.553 33.4027C200.972 34.7903 199.867 35.7503 198.237 36.2827C199.576 36.557 200.512 37.2266 201.044 38.2915C201.593 39.3402 201.867 40.7036 201.867 42.3816V58.5H193.469V41.8249C193.469 40.5826 193.211 39.8162 192.695 39.5258C192.195 39.2192 191.38 39.0659 190.25 39.0659V58.5H181.634ZM190.299 31.6844H192.356C193.534 31.6844 194.123 30.4017 194.123 27.8363C194.123 26.1744 193.994 25.0854 193.735 24.569C193.477 24.0527 192.993 23.7946 192.283 23.7946H190.299V31.6844ZM209.406 58.5V24.085H204.347V15.9048H222.983V24.085H217.925V58.5H209.406Z" fill="white"></path><path d="M101.862 62.705C101.031 62.705 100.378 62.9831 99.9028 63.5393C99.4276 64.0955 99.1899 64.8559 99.1899 65.8204C99.1899 66.8167 99.4205 67.5859 99.8817 68.128C100.343 68.6666 100.999 68.9359 101.851 68.9359C102.4 68.9359 103.018 68.8338 103.705 68.6296V69.4745C103.377 69.5942 103.062 69.6751 102.759 69.7174C102.457 69.7631 102.108 69.786 101.714 69.786C100.577 69.786 99.7004 69.441 99.0843 68.7511C98.4718 68.0576 98.1655 67.0772 98.1655 65.8099C98.1655 65.0143 98.3116 64.3173 98.6038 63.7189C98.8995 63.1204 99.3272 62.6593 99.887 62.3354C100.45 62.0115 101.112 61.8496 101.872 61.8496C102.689 61.8496 103.4 62.001 104.006 62.3037L103.615 63.1274C102.999 62.8458 102.415 62.705 101.862 62.705ZM110.295 66.7709C110.295 67.7179 110.055 68.4571 109.576 68.9887C109.098 69.5202 108.436 69.786 107.591 69.786C107.067 69.786 106.602 69.6646 106.197 69.4217C105.792 69.1753 105.481 68.8232 105.262 68.3656C105.044 67.908 104.935 67.3764 104.935 66.7709C104.935 65.8275 105.171 65.0935 105.643 64.569C106.114 64.041 106.776 63.7769 107.628 63.7769C108.445 63.7769 109.092 64.0462 109.571 64.5848C110.053 65.1199 110.295 65.8486 110.295 66.7709ZM105.917 66.7709C105.917 67.4996 106.06 68.0541 106.345 68.4342C106.634 68.8109 107.058 68.9992 107.617 68.9992C108.17 68.9992 108.591 68.8109 108.879 68.4342C109.168 68.0541 109.312 67.4996 109.312 66.7709C109.312 66.0422 109.166 65.4948 108.874 65.1287C108.586 64.7591 108.161 64.5743 107.602 64.5743C106.479 64.5743 105.917 65.3065 105.917 66.7709ZM115.755 69.6804V65.9736C115.755 65.5019 115.649 65.1516 115.438 64.9228C115.23 64.6904 114.903 64.5743 114.456 64.5743C113.861 64.5743 113.428 64.7397 113.157 65.0706C112.889 65.398 112.755 65.9331 112.755 66.6759V69.6804H111.805V63.8825H112.57L112.713 64.6746H112.766C112.945 64.3895 113.197 64.1694 113.521 64.0146C113.845 63.8561 114.202 63.7769 114.593 63.7769C115.304 63.7769 115.832 63.9494 116.177 64.2944C116.522 64.6394 116.694 65.1762 116.694 65.9049V69.6804H115.755ZM119.768 69.6804L117.571 63.8825H118.59L119.82 67.299C120.063 67.9854 120.218 68.4976 120.285 68.8356H120.327C120.338 68.7898 120.35 68.7387 120.364 68.6824C120.382 68.6226 120.401 68.5592 120.422 68.4923C120.444 68.4219 120.574 68.0241 120.813 67.299L122.049 63.8825H123.063L120.861 69.6804H119.768ZM126.447 69.786C125.578 69.786 124.895 69.5238 124.399 68.9992C123.906 68.4712 123.659 67.746 123.659 66.8237C123.659 65.8944 123.89 65.1551 124.351 64.606C124.812 64.0533 125.435 63.7769 126.22 63.7769C126.949 63.7769 127.53 64.0128 127.963 64.4845C128.396 64.9527 128.612 65.5881 128.612 66.3907V66.9663H124.641C124.659 67.6246 124.826 68.1245 125.143 68.4659C125.46 68.8074 125.909 68.9781 126.49 68.9781C126.799 68.9781 127.093 68.9517 127.371 68.8989C127.65 68.8426 127.975 68.7352 128.348 68.5768V69.4111C128.028 69.5484 127.727 69.6452 127.445 69.7015C127.164 69.7579 126.831 69.786 126.447 69.786ZM126.21 64.5532C125.756 64.5532 125.397 64.6992 125.133 64.9914C124.869 65.2836 124.712 65.6902 124.663 66.2112H127.614C127.607 65.6691 127.482 65.2572 127.239 64.9756C126.997 64.694 126.653 64.5532 126.21 64.5532ZM132.789 63.7769C133.046 63.7769 133.273 63.7981 133.47 63.8403L133.354 64.7168C133.139 64.6676 132.93 64.6429 132.726 64.6429C132.419 64.6429 132.134 64.7274 131.87 64.8964C131.61 65.0654 131.406 65.2995 131.258 65.5987C131.11 65.8944 131.036 66.2235 131.036 66.5861V69.6804H130.086V63.8825H130.867L130.973 64.9439H131.015C131.237 64.5602 131.499 64.2698 131.802 64.0726C132.104 63.8755 132.434 63.7769 132.789 63.7769ZM138.328 68.0805C138.328 68.6226 138.126 69.0433 137.721 69.3425C137.316 69.6382 136.748 69.786 136.015 69.786C135.252 69.786 134.644 69.6646 134.194 69.4217V68.5557C134.831 68.8655 135.445 69.0204 136.037 69.0204C136.515 69.0204 136.864 68.9429 137.082 68.788C137.3 68.6331 137.409 68.4254 137.409 68.1649C137.409 67.9361 137.304 67.7425 137.093 67.5841C136.885 67.4257 136.514 67.2444 135.978 67.0402C135.433 66.829 135.049 66.6495 134.827 66.5016C134.606 66.3502 134.442 66.1813 134.336 65.9947C134.234 65.8081 134.183 65.5811 134.183 65.3135C134.183 64.8383 134.377 64.4634 134.764 64.1888C135.151 63.9142 135.683 63.7769 136.359 63.7769C137.017 63.7769 137.633 63.9072 138.207 64.1677L137.885 64.9228C137.297 64.6764 136.767 64.5532 136.295 64.5532C135.901 64.5532 135.602 64.6165 135.398 64.7432C135.193 64.8665 135.091 65.0372 135.091 65.2554C135.091 65.4667 135.179 65.6427 135.355 65.7835C135.531 65.9208 135.942 66.1126 136.586 66.3591C137.068 66.5386 137.424 66.7058 137.652 66.8607C137.885 67.0156 138.055 67.1898 138.165 67.3834C138.274 67.5771 138.328 67.8094 138.328 68.0805ZM140.689 69.6804H139.738V63.8825H140.689V69.6804ZM139.664 62.3143C139.664 62.1031 139.717 61.9499 139.823 61.8549C139.932 61.7598 140.065 61.7123 140.224 61.7123C140.372 61.7123 140.5 61.7598 140.609 61.8549C140.722 61.9499 140.778 62.1031 140.778 62.3143C140.778 62.522 140.722 62.6751 140.609 62.7737C140.5 62.8722 140.372 62.9215 140.224 62.9215C140.065 62.9215 139.932 62.8722 139.823 62.7737C139.717 62.6751 139.664 62.522 139.664 62.3143ZM147.564 66.7709C147.564 67.7179 147.324 68.4571 146.846 68.9887C146.367 69.5202 145.705 69.786 144.86 69.786C144.336 69.786 143.871 69.6646 143.466 69.4217C143.061 69.1753 142.75 68.8232 142.531 68.3656C142.313 67.908 142.204 67.3764 142.204 66.7709C142.204 65.8275 142.44 65.0935 142.912 64.569C143.383 64.041 144.045 63.7769 144.897 63.7769C145.714 63.7769 146.361 64.0462 146.84 64.5848C147.323 65.1199 147.564 65.8486 147.564 66.7709ZM143.186 66.7709C143.186 67.4996 143.329 68.0541 143.614 68.4342C143.903 68.8109 144.327 68.9992 144.886 68.9992C145.439 68.9992 145.86 68.8109 146.149 68.4342C146.437 68.0541 146.582 67.4996 146.582 66.7709C146.582 66.0422 146.435 65.4948 146.143 65.1287C145.855 64.7591 145.43 64.5743 144.871 64.5743C143.748 64.5743 143.186 65.3065 143.186 66.7709ZM153.024 69.6804V65.9736C153.024 65.5019 152.918 65.1516 152.707 64.9228C152.499 64.6904 152.172 64.5743 151.725 64.5743C151.13 64.5743 150.697 64.7397 150.426 65.0706C150.158 65.398 150.024 65.9331 150.024 66.6759V69.6804H149.074V63.8825H149.84L149.982 64.6746H150.035C150.214 64.3895 150.466 64.1694 150.79 64.0146C151.114 63.8561 151.471 63.7769 151.862 63.7769C152.573 63.7769 153.101 63.9494 153.446 64.2944C153.791 64.6394 153.963 65.1762 153.963 65.9049V69.6804H153.024ZM159.534 68.0805C159.534 68.6226 159.332 69.0433 158.927 69.3425C158.522 69.6382 157.954 69.786 157.222 69.786C156.458 69.786 155.85 69.6646 155.4 69.4217V68.5557C156.037 68.8655 156.651 69.0204 157.243 69.0204C157.721 69.0204 158.07 68.9429 158.288 68.788C158.506 68.6331 158.616 68.4254 158.616 68.1649C158.616 67.9361 158.51 67.7425 158.299 67.5841C158.091 67.4257 157.72 67.2444 157.185 67.0402C156.639 66.829 156.255 66.6495 156.033 66.5016C155.812 66.3502 155.648 66.1813 155.542 65.9947C155.44 65.8081 155.389 65.5811 155.389 65.3135C155.389 64.8383 155.583 64.4634 155.97 64.1888C156.357 63.9142 156.889 63.7769 157.565 63.7769C158.223 63.7769 158.839 63.9072 159.413 64.1677L159.091 64.9228C158.503 64.6764 157.973 64.5532 157.501 64.5532C157.107 64.5532 156.808 64.6165 156.604 64.7432C156.4 64.8665 156.297 65.0372 156.297 65.2554C156.297 65.4667 156.385 65.6427 156.561 65.7835C156.737 65.9208 157.148 66.1126 157.792 66.3591C158.274 66.5386 158.63 66.7058 158.858 66.8607C159.091 67.0156 159.261 67.1898 159.371 67.3834C159.48 67.5771 159.534 67.8094 159.534 68.0805ZM166.33 69.6804H165.353V62.8159H162.94V61.9605H168.727V62.8159H166.33V69.6804ZM173.723 69.6804V65.9736C173.723 65.5019 173.617 65.1516 173.406 64.9228C173.198 64.6904 172.871 64.5743 172.424 64.5743C171.836 64.5743 171.405 64.738 171.13 65.0654C170.859 65.3927 170.723 65.9331 170.723 66.6864V69.6804H169.773V61.4641H170.723V63.872C170.723 64.1888 170.706 64.4599 170.671 64.6852H170.734C170.907 64.4035 171.151 64.1835 171.468 64.0251C171.785 63.8667 172.142 63.7875 172.54 63.7875C173.244 63.7875 173.774 63.9565 174.129 64.2944C174.485 64.6288 174.663 65.1657 174.663 65.9049V69.6804H173.723ZM180.038 69.6804L179.853 68.8567H179.811C179.522 69.2193 179.234 69.4657 178.945 69.5959C178.66 69.7227 178.299 69.786 177.863 69.786C177.292 69.786 176.845 69.6364 176.521 69.3372C176.197 69.038 176.036 68.6155 176.036 68.0699C176.036 66.8941 176.963 66.2781 178.818 66.2218L179.8 66.1848V65.8416C179.8 65.4015 179.705 65.0777 179.515 64.87C179.325 64.6588 179.021 64.5532 178.602 64.5532C178.296 64.5532 178.005 64.5989 177.731 64.6904C177.46 64.782 177.204 64.8841 176.965 64.9967L176.674 64.2839C176.967 64.129 177.285 64.0075 177.63 63.9195C177.975 63.8315 178.317 63.7875 178.655 63.7875C179.355 63.7875 179.876 63.9424 180.218 64.2522C180.559 64.562 180.73 65.0548 180.73 65.7307V69.6804H180.038ZM178.079 69.0204C178.611 69.0204 179.028 68.8778 179.331 68.5927C179.637 68.304 179.79 67.8956 179.79 67.3676V66.8448L178.934 66.8818C178.269 66.9065 177.783 67.0121 177.477 67.1986C177.174 67.3852 177.023 67.6791 177.023 68.0805C177.023 68.3832 177.115 68.6155 177.298 68.7775C177.484 68.9394 177.745 69.0204 178.079 69.0204ZM184.468 69.0098C184.592 69.0098 184.736 68.9975 184.901 68.9728C185.067 68.9482 185.192 68.92 185.276 68.8884V69.6171C185.188 69.6558 185.051 69.6927 184.864 69.7279C184.681 69.7667 184.495 69.786 184.305 69.786C183.171 69.786 182.604 69.1893 182.604 67.996V64.6218H181.786V64.1677L182.615 63.7875L182.995 62.5519H183.56V63.8825H185.234V64.6218H183.56V67.9696C183.56 68.304 183.639 68.561 183.798 68.7405C183.96 68.92 184.183 69.0098 184.468 69.0098ZM192.785 69.6804L190.24 62.911H190.198C190.25 63.4742 190.277 64.1694 190.277 64.9967V69.6804H189.379V61.9605H190.815L193.197 68.2864H193.239L195.663 61.9605H197.089V69.6804H196.127V64.9333C196.127 64.4053 196.152 63.7347 196.201 62.9215H196.159L193.582 69.6804H192.785ZM202.638 69.6804L202.453 68.8567H202.411C202.122 69.2193 201.834 69.4657 201.545 69.5959C201.26 69.7227 200.899 69.786 200.463 69.786C199.892 69.786 199.445 69.6364 199.121 69.3372C198.798 69.038 198.636 68.6155 198.636 68.0699C198.636 66.8941 199.563 66.2781 201.418 66.2218L202.401 66.1848V65.8416C202.401 65.4015 202.306 65.0777 202.115 64.87C201.925 64.6588 201.621 64.5532 201.202 64.5532C200.896 64.5532 200.605 64.5989 200.331 64.6904C200.06 64.782 199.804 64.8841 199.565 64.9967L199.275 64.2839C199.567 64.129 199.885 64.0075 200.23 63.9195C200.575 63.8315 200.917 63.7875 201.255 63.7875C201.955 63.7875 202.476 63.9424 202.818 64.2522C203.159 64.562 203.33 65.0548 203.33 65.7307V69.6804H202.638ZM200.679 69.0204C201.211 69.0204 201.628 68.8778 201.931 68.5927C202.237 68.304 202.39 67.8956 202.39 67.3676V66.8448L201.535 66.8818C200.869 66.9065 200.383 67.0121 200.077 67.1986C199.774 67.3852 199.623 67.6791 199.623 68.0805C199.623 68.3832 199.715 68.6155 199.898 68.7775C200.084 68.9394 200.345 69.0204 200.679 69.0204ZM207.068 69.0098C207.192 69.0098 207.336 68.9975 207.501 68.9728C207.667 68.9482 207.792 68.92 207.876 68.8884V69.6171C207.788 69.6558 207.651 69.6927 207.464 69.7279C207.281 69.7667 207.095 69.786 206.905 69.786C205.771 69.786 205.204 69.1893 205.204 67.996V64.6218H204.386V64.1677L205.215 63.7875L205.595 62.5519H206.16V63.8825H207.834V64.6218H206.16V67.9696C206.16 68.304 206.239 68.561 206.398 68.7405C206.56 68.92 206.783 69.0098 207.068 69.0098ZM210.976 69.0098C211.099 69.0098 211.243 68.9975 211.409 68.9728C211.574 68.9482 211.699 68.92 211.784 68.8884V69.6171C211.696 69.6558 211.559 69.6927 211.372 69.7279C211.189 69.7667 211.002 69.786 210.812 69.786C209.679 69.786 209.112 69.1893 209.112 67.996V64.6218H208.294V64.1677L209.123 63.7875L209.503 62.5519H210.068V63.8825H211.742V64.6218H210.068V67.9696C210.068 68.304 210.147 68.561 210.305 68.7405C210.467 68.92 210.691 69.0098 210.976 69.0098ZM215.411 69.786C214.542 69.786 213.859 69.5238 213.363 68.9992C212.87 68.4712 212.623 67.746 212.623 66.8237C212.623 65.8944 212.854 65.1551 213.315 64.606C213.776 64.0533 214.399 63.7769 215.184 63.7769C215.913 63.7769 216.494 64.0128 216.927 64.4845C217.36 64.9527 217.576 65.5881 217.576 66.3907V66.9663H213.606C213.623 67.6246 213.79 68.1245 214.107 68.4659C214.424 68.8074 214.873 68.9781 215.454 68.9781C215.764 68.9781 216.057 68.9517 216.336 68.8989C216.614 68.8426 216.939 68.7352 217.312 68.5768V69.4111C216.992 69.5484 216.691 69.6452 216.409 69.7015C216.128 69.7579 215.795 69.786 215.411 69.786ZM215.174 64.5532C214.72 64.5532 214.361 64.6992 214.097 64.9914C213.833 65.2836 213.676 65.6902 213.627 66.2112H216.578C216.571 65.6691 216.446 65.2572 216.204 64.9756C215.961 64.694 215.617 64.5532 215.174 64.5532ZM221.753 63.7769C222.01 63.7769 222.237 63.7981 222.434 63.8403L222.318 64.7168C222.104 64.6676 221.894 64.6429 221.69 64.6429C221.384 64.6429 221.098 64.7274 220.834 64.8964C220.574 65.0654 220.37 65.2995 220.222 65.5987C220.074 65.8944 220 66.2235 220 66.5861V69.6804H219.05V63.8825H219.831L219.937 64.9439H219.979C220.201 64.5602 220.463 64.2698 220.766 64.0726C221.069 63.8755 221.398 63.7769 221.753 63.7769Z" fill="white"></path></svg>